<svg id="Desktop" xmlns="http://www.w3.org/2000/svg" viewBox="0 0 126.39 49.46"><defs><style>.cls-1{fill:#f37121;}</style></defs><title>adc-logo</title><g id="Top"><path class="cls-1" d="M1787.23,91.57a6.31,6.31,0,0,1-4.32,1.76c-4.38,0-6-3.05-6-5.91A6.19,6.19,0,0,1,1778.6,83a5.83,5.83,0,0,1,4.31-1.62,5.94,5.94,0,0,1,4.2,1.67l0.45,0.44,2.86-2.74-0.47-.47a9.88,9.88,0,0,0-7-2.91,10,10,0,0,0-7.3,2.79,10.72,10.72,0,0,0-.36,14.1,10.83,10.83,0,0,0,14.87.19l0.46-.46-2.9-2.9Z" transform="translate(-1733.36 -60.47)"/><path class="cls-1" d="M1798.81,80.45a7.9,7.9,0,0,0-8.12,8.21,8.15,8.15,0,1,0,16.29,0A7.93,7.93,0,0,0,1798.81,80.45Zm0,3.39a4.57,4.57,0,0,1,4.51,4.82,4.5,4.5,0,1,1-9,0C1794.33,86.27,1795.87,83.84,1798.81,83.84Z" transform="translate(-1733.36 -60.47)"/><path class="cls-1" d="M1816.32,80.45a7.9,7.9,0,0,0-8.12,8.21,8.15,8.15,0,1,0,16.29,0A7.93,7.93,0,0,0,1816.32,80.45Zm0,3.39a4.57,4.57,0,0,1,4.51,4.82,4.5,4.5,0,1,1-9,0C1811.84,86.27,1813.38,83.84,1816.32,83.84Z" transform="translate(-1733.36 -60.47)"/><polygon class="cls-1" points="105.15 22.52 105.15 21.75 101.06 21.75 96.61 26.66 96.61 16.04 92.86 16.04 92.86 36.28 96.61 36.28 96.61 30.63 101.84 36.28 105.95 36.28 105.95 35.48 99.41 28.61 105.15 22.52"/><rect class="cls-1" x="106.42" y="21.69" width="3.72" height="14.59"/><path class="cls-1" d="M1841.66,76.45a2.19,2.19,0,1,0,2.21,2.18A2.12,2.12,0,0,0,1841.66,76.45Z" transform="translate(-1733.36 -60.47)"/><path class="cls-1" d="M1858,84.16a7.59,7.59,0,0,0-12.83,5.25c0,4.53,3,7.45,7.59,7.45a8.33,8.33,0,0,0,6-2.4l0.14-.15-2.17-2.1-0.15.17a5.54,5.54,0,0,1-3.8,1.4c-2.28,0-3.88-1.15-4.21-3h11l0-.2C1860,87.85,1859.38,85.64,1858,84.16Zm-9.32,3.76a3.82,3.82,0,0,1,4-2.87c2.19,0,3.57,1,3.81,2.87h-7.78Z" transform="translate(-1733.36 -60.47)"/><path class="cls-1" d="M1760.15,84.27a4,4,0,0,0-4.14,4.25,4,4,0,0,0,4.14,4.28A4.26,4.26,0,0,0,1760.15,84.27Z" transform="translate(-1733.36 -60.47)"/><path class="cls-1" d="M1744.69,84.19a4.34,4.34,0,0,0,0,8.68C1750.35,92.88,1750.35,84.19,1744.69,84.19Z" transform="translate(-1733.36 -60.47)"/><path class="cls-1" d="M1770.26,87.2a12.56,12.56,0,0,1,10.29-12.35,24.73,24.73,0,1,0-2,24.18A12.56,12.56,0,0,1,1770.26,87.2Zm-18.59,7.88h-2.6L1748.94,93a5.18,5.18,0,0,1-4.51,2.47c-3.82,0-6.72-2.44-6.72-6.91a6.42,6.42,0,0,1,6.77-6.83,5.06,5.06,0,0,1,4.46,2.36L1749,82h2.66V95.08Zm15.56,0h-2.58L1764.5,93a5.13,5.13,0,0,1-4.54,2.34c-3.8,0-6.69-2.5-6.69-6.83s2.84-6.83,6.64-6.83A5.5,5.5,0,0,1,1764.5,84V76.52h2.74V95.08Z" transform="translate(-1733.36 -60.47)"/></g></svg>